<svg xmlns="http://www.w3.org/2000/svg" viewBox="0 0 900 650"><defs><linearGradient id="bg" x2="1" y2="1"><stop stop-color="#fff0d9"/><stop offset="1" stop-color="#f5c98b"/></linearGradient><linearGradient id="dosa" x2=".9" y2="1"><stop stop-color="#f7c65b"/><stop offset="1" stop-color="#bf6624"/></linearGradient></defs><rect width="900" height="650" fill="url(#bg)"/><circle cx="750" cy="110" r="105" fill="#fff8e8" opacity=".55"/><ellipse cx="450" cy="435" rx="330" ry="145" fill="#fff"/><ellipse cx="450" cy="425" rx="275" ry="100" fill="#f4ead8"/><path d="M245 413 Q267 270 440 284 Q575 300 646 409 Q547 450 445 455 Q330 458 245 413Z" fill="url(#dosa)" stroke="#a94f1c" stroke-width="7"/><path d="M273 399 Q340 316 429 315 M310 427 Q436 356 573 404 M382 442 Q473 395 614 423" fill="none" stroke="#ffe39a" stroke-width="10" opacity=".8"/><circle cx="660" cy="480" r="44" fill="#e74b2d"/><circle cx="695" cy="466" r="40" fill="#79a84a"/><circle cx="675" cy="505" r="32" fill="#f3d26b"/><text x="70" y="110" font-family="Arial,sans-serif" font-size="28" font-weight="700" fill="#773d22" letter-spacing="5">FRESH FROM THE TAWA</text><text x="70" y="156" font-family="Arial,sans-serif" font-size="19" fill="#8e674d">Crispy, golden, made with care</text></svg>
